<?xml version="1.0" encoding="utf-8"?>
<!-- Generator: Adobe Illustrator 20.1.0, SVG Export Plug-In . SVG Version: 6.00 Build 0)  -->
<svg version="1.1" id="Capa_1" xmlns="http://www.w3.org/2000/svg" xmlns:xlink="http://www.w3.org/1999/xlink" x="0px" y="0px"
	 viewBox="0 0 1600 577" style="enable-background:new 0 0 1600 577;" xml:space="preserve">
<style type="text/css">
	.st0{fill:#2D2D2D;}
	.st1{opacity:0.57;fill:#191919;}
	.st2{fill:#191919;}
	.st3{fill:#EAB83D;}
	.st4{fill:#FFCE43;}
	.st5{fill:#D8A739;}
	.st6{fill:#FFFFFF;}
	.st7{fill:#73BCA7;}
	.st8{fill:#70B39F;}
	.st9{opacity:0.57;fill:#6AA590;}
	.st10{fill:#D1CCBF;}
	.st11{fill:#BDBAB0;}
	.st12{fill:none;}
	.st13{fill:#80B2D0;}
	.st14{fill:#6B9EB7;}
	.st15{fill:#5D9E8B;}
	.st16{fill:#F1E94F;}
	.st17{opacity:0.1;fill:#F1E94F;}
	.st18{opacity:0.1;}
	.st19{fill:#DDD140;}
	.st20{opacity:0.79;}
	.st21{fill:#978099;}
	.st22{fill:#AF93B2;}
	.st23{fill:#5C9583;}
	.st24{fill:#4F8472;}
	.st25{fill:#BCBA64;}
	.st26{fill:#38271B;}
	.st27{fill:#8D6C49;}
	.st28{fill:#785A3E;}
	.st29{fill:#553D29;}
	.st30{fill:#6C4F34;}
	.st31{fill:#533B27;}
	.st32{fill:#E0DDD1;}
	.st33{fill:#CAC8BC;}
	.st34{fill:#100F10;}
	.st35{fill:#434343;}
	.st36{fill:#4C806E;}
	.st37{fill:#6DAF9A;}
	.st38{fill:#B3B2AC;}
	.st39{fill:#644A33;}
	.st40{fill:#8C4635;}
	.st41{fill:#6F3127;}
	.st42{fill:#6B4F37;}
	.st43{fill:#433021;}
	.st44{fill:#291D13;}
	.st45{fill:#926B4C;}
	.st46{fill:#6C4B34;}
	.st47{fill:#88C5B1;}
	.st48{fill:#ABA89F;}
	.st49{fill:#4F8774;}
	.st50{fill:#DDC975;}
	.st51{fill:#BDAC61;}
	.st52{fill:#A8C757;}
	.st53{fill:#87AA3D;}
	.st54{fill:#626058;}
	.st55{fill:#B7B3A6;}
	.st56{fill:#9D9D9D;}
	.st57{fill:#EBBE96;}
	.st58{fill:#2F4265;}
	.st59{fill:#A4A3A3;}
	.st60{fill:#21334A;}
	.st61{fill:#D0CFCE;}
	.st62{fill:#BF9376;}
	.st63{fill:#97755E;}
	.st64{fill:#805D40;}
	.st65{fill:#442F1F;}
	.st66{fill:#465472;}
	.st67{fill:#F5DBC4;}
	.st68{fill:#D6BCA8;}
	.st69{fill:#8D8C8C;}
	.st70{fill:#32312E;}
	.st71{fill:#7B786C;}
	.st72{fill:#B3B1A7;}
	.st73{fill:#759855;}
	.st74{fill:#95928B;}
	.st75{fill:#5F5D57;}
	.st76{fill:#3C3A35;}
	.st77{fill:#7F7B74;}
	.st78{fill:#706D65;}
	.st79{fill:#F1EDDC;}
	.st80{fill:#949082;}
	.st81{fill:#C8C5BA;}
	.st82{fill:#A19D91;}
	.st83{fill:#CDCAC0;}
	.st84{fill:#A49F93;}
	.st85{fill:#D14242;}
	.st86{fill:#9B2929;}
	.st87{fill:#424244;}
	.st88{fill:#D95F56;}
	.st89{fill:#43464A;}
	.st90{fill:#292D2F;}
	.st91{fill:#CE5942;}
	.st92{fill:#E8E8E7;}
	.st93{fill:#E5E4E4;}
	.st94{fill:#F2E1A1;}
	.st95{fill:#D9C78D;}
	.st96{fill:#EFCB59;}
	.st97{fill:#CDAA48;}
	.st98{fill:#F9EFD8;}
	.st99{opacity:0.27;}
	.st100{fill:#030203;}
	.st101{fill:#F5C1A4;}
	.st102{fill:#D5A58D;}
	.st103{fill:#886B30;}
	.st104{fill:#F2F3F2;}
	.st105{clip-path:url(#SVGID_2_);}
	.st106{opacity:0.71;}
	.st107{fill:#89AAC3;}
	.st108{opacity:0.35;}
	.st109{fill:#738EA2;}
	.st110{fill:#D9C2B6;}
	.st111{fill:#ECE8D7;}
	.st112{fill:#D1CCB9;}
	.st113{fill:#E1E1E0;}
	.st114{fill:#E0B745;}
	.st115{fill:#C59F42;}
	.st116{fill:#222421;}
	.st117{fill:#1C1D1C;}
	.st118{fill:#010001;}
	.st119{fill:#F0A7A3;}
	.st120{fill:#6E6E6E;}
	.st121{fill:none;stroke:#FFFFFF;stroke-miterlimit:10;}
	.st122{fill:#FBFBFB;}
	.st123{clip-path:url(#SVGID_4_);}
	.st124{fill:#CECECE;}
	.st125{fill:#E5E5E5;}
	.st126{fill:#020202;}
	.st127{fill:#1E1E1E;}
	.st128{fill:#303030;}
	.st129{fill:#1A1A1A;}
	.st130{fill:#D3D3D3;}
	.st131{fill:#B6B6B6;}
	.st132{fill:#FCFCFC;}
	.st133{clip-path:url(#SVGID_6_);}
	.st134{clip-path:url(#SVGID_8_);}
	.st135{fill:#A8A59D;}
	.st136{fill:#6B3328;}
	.st137{fill:#642D25;}
	.st138{fill:#D7D7D7;}
	.st139{fill:#211710;}
	.st140{clip-path:url(#SVGID_10_);}
	.st141{fill:#7A5A3C;}
	.st142{fill:#BE3331;}
	.st143{fill:#992726;}
	.st144{fill:#F4F7E4;}
	.st145{fill:#DADDCA;}
	.st146{fill:#E4E2E2;}
	.st147{fill:#88423B;}
	.st148{fill:#715337;}
	.st149{fill:#AB594D;}
	.st150{fill:#624932;}
	.st151{fill:#50201B;}
	.st152{fill:#B7B8B8;}
	.st153{fill:#DCDBDA;}
	.st154{fill:#6C5036;}
	.st155{fill:#D3B6A3;}
	.st156{fill:#BBBBBB;}
	.st157{fill:#733629;}
	.st158{fill:#3D3B3B;}
	.st159{fill:#F6DFD0;}
	.st160{fill:#EBCDB6;}
	.st161{fill:#8E4841;}
	.st162{fill:#232222;}
	.st163{fill:#E9E7E5;}
	.st164{fill:#634931;}
	.st165{fill:#E1D5CE;}
	.st166{fill:#C2B4AB;}
	.st167{fill:#EDEBEA;}
	.st168{fill:#664C33;}
	.st169{fill:#433020;}
	.st170{fill:#C8C6C2;}
	.st171{fill:#B3B4A4;}
	.st172{fill:#B73B3B;}
	.st173{fill:#DBAA63;}
	.st174{fill:#A83636;}
	.st175{fill:#F7C263;}
	.st176{clip-path:url(#SVGID_12_);}
	.st177{fill:#5F9C62;}
	.st178{fill:#538754;}
	.st179{fill:#518978;}
	.st180{fill:#43705F;}
	.st181{fill:#4F4E4E;}
	.st182{fill:#868686;}
	.st183{fill:#9D9C9C;}
	.st184{fill:#DDDCDC;}
	.st185{fill:#BABBBA;}
	.st186{fill:#C0BDBB;}
	.st187{fill:#7F7F7F;}
	.st188{fill:#C5C3C2;}
	.st189{fill:#77352A;}
	.st190{fill:#939393;}
	.st191{fill:#AEACAD;}
	.st192{fill:#AAA9A9;}
	.st193{fill:#6D6C6C;}
	.st194{fill:#BD4A70;}
	.st195{fill:#983351;}
	.st196{fill:#CF4B4B;}
	.st197{opacity:0.69;}
	.st198{fill:#E7673A;}
	.st199{fill:#CC9A37;}
	.st200{fill:#FAFCFB;}
	.st201{clip-path:url(#SVGID_14_);}
	.st202{fill:#DDCCB1;}
	.st203{fill:#F4E3C3;}
	.st204{fill:#342A44;}
	.st205{fill:#1C1726;}
	.st206{fill:#FEC6A7;}
	.st207{fill:#DBAA91;}
	.st208{opacity:0.7;}
	.st209{fill:#E0B141;}
	.st210{fill:#F4C649;}
	.st211{fill:#B38832;}
	.st212{fill:#B7A58E;}
	.st213{fill:#D5C1A8;}
	.st214{fill:#F5E4CA;}
	.st215{fill:#E24955;}
	.st216{fill:#983F5D;}
	.st217{fill:#74665D;}
	.st218{fill:#E9C371;}
	.st219{fill:#877A70;}
	.st220{fill:#C7D9D7;}
	.st221{fill:#CFA962;}
	.st222{fill:#E0DCC9;}
	.st223{fill:#C4C0B0;}
	.st224{fill:#F0E7C5;}
	.st225{fill:#8A877B;}
	.st226{fill:#B69254;}
	.st227{fill:#C65776;}
	.st228{fill:#7F3A51;}
	.st229{fill:#9E9B8E;}
	.st230{fill:#7F865C;}
	.st231{fill:#AFC7C6;}
	.st232{fill:#9BAEAD;}
	.st233{fill:#676B48;}
	.st234{fill:#C2E3E8;}
	.st235{fill:#819392;}
	.st236{clip-path:url(#SVGID_16_);}
	.st237{fill:#96AEBB;}
	.st238{fill:#6E838D;}
	.st239{fill:#506D84;}
	.st240{fill:#2C424D;}
	.st241{fill:#385263;}
	.st242{fill:#C4BB89;}
	.st243{fill:#978E67;}
	.st244{fill:#3A723A;}
	.st245{fill:#458748;}
	.st246{fill:#2A542A;}
	.st247{fill:#9E4633;}
	.st248{fill:#BC5336;}
	.st249{fill:#CFA13B;}
	.st250{fill:#431E16;}
	.st251{fill:#6A3123;}
	.st252{fill:#24100B;}
	.st253{fill:#1B486A;}
	.st254{fill:#24588F;}
	.st255{fill:#113040;}
	.st256{fill:#181717;}
	.st257{fill:#2F2F30;}
	.st258{fill:#BEBEBC;}
	.st259{fill:#CDCDCD;}
	.st260{opacity:0.81;fill:#FFFFFF;}
	.st261{fill:#888888;}
	.st262{fill:#B9B9B9;}
	.st263{fill:#9E9E9E;}
	.st264{clip-path:url(#SVGID_18_);}
	.st265{fill:#99856E;}
	.st266{fill:#756454;}
	.st267{fill:#E8D3BC;}
	.st268{fill:#CCBAA8;}
	.st269{fill:#D8D8D8;}
	.st270{fill:#E2D1BA;}
	.st271{fill:none;stroke:#A59481;stroke-miterlimit:10;}
	.st272{fill:none;stroke:#756454;stroke-width:3;stroke-linecap:round;stroke-linejoin:round;stroke-miterlimit:10;}
	.st273{fill:#BCBCBB;}
	.st274{fill:#4F4F16;}
	.st275{fill:#66681D;}
	.st276{fill:#848A28;}
	.st277{fill:#959695;}
	.st278{fill:#F7DB4F;}
	.st279{fill:#BABABA;}
	.st280{fill:#DBDDDC;}
	.st281{opacity:0.59;fill:#D3D3D3;}
	.st282{fill:#FFC550;}
	.st283{fill:#FFE94D;}
	.st284{opacity:0.65;fill:#FFF0B0;}
	.st285{fill:#D39B37;}
	.st286{fill:#F74657;}
	.st287{fill:#6D6D6D;}
	.st288{fill:#C9C8C7;}
	.st289{fill:#B76930;}
	.st290{fill:#F49947;}
	.st291{fill:#F7A76B;}
	.st292{fill:#D37F39;}
	.st293{fill:#353535;}
	.st294{fill:#D83A51;}
	.st295{fill:#BAA790;}
	.st296{fill:#D8C5AB;}
	.st297{fill:#F9E8CD;}
	.st298{opacity:0.67;fill:#70B39F;}
	.st299{opacity:0.67;}
	.st300{fill:#477264;}
	.st301{fill:#E8E8E8;}
	.st302{opacity:0.1;fill:#F4DB47;}
	.st303{opacity:0.6;}
	.st304{fill:#528977;}
	.st305{fill:#DBAD3B;}
	.st306{fill:#F4DDB8;}
	.st307{fill:#D8C1A0;}
	.st308{fill:#E5616E;}
	.st309{fill:#C15262;}
	.st310{fill:#916A4C;}
	.st311{fill:#684A35;}
	.st312{fill:#FFCA5F;}
	.st313{fill:#D8A852;}
	.st314{fill:#B78B44;}
	.st315{fill:#CCF8F8;}
	.st316{fill:#DAA990;}
	.st317{fill:#FDC5A6;}
	.st318{fill:#DCCBB0;}
	.st319{fill:#E4E4E4;}
	.st320{fill:#F3E2C2;}
	.st321{fill:#BFE8E7;}
	.st322{fill:#FDFFFF;}
	.st323{fill:#D2AE66;}
	.st324{fill:#BA9554;}
	.st325{fill:#F98C9B;}
	.st326{fill:#676868;}
	.st327{fill:#CEB9A5;}
	.st328{fill:none;stroke:#000000;stroke-linecap:round;stroke-linejoin:round;stroke-miterlimit:10;}
	.st329{fill:#F4E7D9;}
	.st330{fill:none;stroke:#7A7067;stroke-miterlimit:10;}
	.st331{fill:none;stroke:#B7A58E;stroke-width:4;stroke-linecap:round;stroke-linejoin:round;stroke-miterlimit:10;}
	.st332{fill:#5DAFA3;}
	.st333{fill:#E23D61;}
	.st334{fill:#CCCCCC;}
	.st335{fill:#605F5F;}
	.st336{fill:#F4D13D;}
	.st337{fill:#F9F7F8;}
	.st338{clip-path:url(#SVGID_20_);fill:#2D2D2D;}
	.st339{clip-path:url(#SVGID_20_);}
	.st340{clip-path:url(#SVGID_20_);fill:#73BCA7;}
	.st341{opacity:0.57;clip-path:url(#SVGID_20_);fill:#6AA590;}
	.st342{clip-path:url(#SVGID_20_);fill:#D1CCBF;}
	.st343{clip-path:url(#SVGID_20_);fill:#BDBAB0;}
	.st344{clip-path:url(#SVGID_20_);fill:#80B2D0;}
	.st345{opacity:0.79;clip-path:url(#SVGID_20_);}
	.st346{clip-path:url(#SVGID_20_);fill:#5C9583;}
	.st347{fill:#D04B4B;}
	.st348{fill:#9F3F3F;}
	.st349{fill:#722E2E;}
	.st350{fill:#F1C972;}
	.st351{opacity:0.53;}
	.st352{fill:#FFEED2;}
	.st353{clip-path:url(#SVGID_22_);}
	.st354{fill:#AAA79F;}
	.st355{fill:#EFC375;}
	.st356{fill:#5B9642;}
	.st357{fill:#141414;}
	.st358{fill:#BA2D48;}
	.st359{fill:#992340;}
	.st360{fill:#F9F9F7;}
	.st361{fill:#EAEAE8;}
	.st362{fill:#4C4C4B;}
	.st363{fill:#3D3D3D;}
	.st364{fill:#D6384F;}
	.st365{fill:#E2C271;}
	.st366{fill:#CEAF6A;}
	.st367{fill:#F7DFA9;}
	.st368{fill:#A88C54;}
	.st369{fill:#D3C9B8;}
	.st370{fill:#A89E8F;}
	.st371{fill:#F4E9D3;}
	.st372{fill:#E0D4BF;}
	.st373{fill:#AA7D6C;}
	.st374{fill:#2B3E4B;}
	.st375{fill:#A2CCE5;}
	.st376{fill:#7696AB;}
	.st377{fill:#344857;}
	.st378{fill:#23343E;}
	.st379{fill:#DCDAD9;}
	.st380{fill:#BFBCBA;}
	.st381{fill:#25201E;}
	.st382{fill:#D9655C;}
	.st383{fill:#37312F;}
	.st384{fill:#40566B;}
	.st385{fill:#CF717C;}
	.st386{fill:#E98088;}
	.st387{fill:#C6C7C8;}
	.st388{fill:#EFDFC0;}
	.st389{fill:#D9C8AE;}
	.st390{fill:#3F2E27;}
	.st391{fill:#291F1A;}
	.st392{fill:#CAB99D;}
	.st393{fill:#EA837F;}
	.st394{fill:#1B2A32;}
	.st395{fill:#416171;}
	.st396{fill:#972B2A;}
	.st397{fill:#D63D3B;}
	.st398{fill:#B0B0B0;}
	.st399{fill:#EDECEC;}
	.st400{fill:#424141;}
	.st401{fill:#DBA489;}
	.st402{fill:#241711;}
	.st403{fill:#9A423E;}
	.st404{fill:#5C8EA9;}
	.st405{fill:#416778;}
	.st406{fill:#E24947;}
	.st407{fill:#781D1D;}
	.st408{fill:#A92C2A;}
	.st409{fill:#942625;}
	.st410{fill:#B6554D;}
	.st411{fill:#7F3232;}
	.st412{fill:#4A1C1C;}
	.st413{fill:#612525;}
	.st414{fill:#CA962E;}
	.st415{fill:#ECB53B;}
	.st416{fill:#F3CE3A;}
	.st417{fill:#CDAE31;}
	.st418{fill:#F4E094;}
	.st419{fill:#643A2D;}
	.st420{fill:#43251E;}
	.st421{fill:#1D1C1C;}
	.st422{fill:#C9AC30;}
	.st423{fill:#E2E3E3;}
	.st424{fill:#B69B29;}
	.st425{fill:#CBE7EB;}
	.st426{fill:#BDBCBD;}
	.st427{fill:#E9E8E6;}
	.st428{fill:#547A90;}
	.st429{fill:#1D110B;}
	.st430{fill:#945A53;}
	.st431{fill:#BF8076;}
	.st432{fill:#AB9C88;}
	.st433{fill:#5B7E8C;}
	.st434{fill:#486472;}
	.st435{fill:#F4BFA3;}
	.st436{fill:#D4A48C;}
	.st437{opacity:0.44;}
	.st438{fill:#FCDD74;}
	.st439{opacity:0.27;fill:#FCDD74;}
	.st440{fill:#F1F2F1;}
	.st441{fill:#516685;}
	.st442{fill:#EBE7D6;}
	.st443{fill:#CFCBB9;}
	.st444{fill:#E0E0DF;}
	.st445{fill:#232421;}
	.st446{fill:#1C1C1C;}
	.st447{fill:#F0A7A1;}
	.st448{opacity:0.35;fill:#FCDD74;}
	.st449{opacity:0.14;}
	.st450{fill:#F3CE28;}
	.st451{fill:#807137;}
	.st452{fill:#ABA99F;}
	.st453{fill:#9C9991;}
	.st454{opacity:0.25;fill:#56544F;}
	.st455{fill:#DCB322;}
	.st456{fill:#F2947E;}
	.st457{fill:#D37866;}
	.st458{fill:#F9AB9B;}
	.st459{fill:#7C5F3D;}
	.st460{fill:#725836;}
	.st461{fill:#BC917E;}
	.st462{fill:#B25E56;}
	.st463{fill:#DB8675;}
	.st464{fill:#E59C91;}
	.st465{fill:#C16B5D;}
	.st466{fill:#B5B5B5;}
	.st467{fill:#AF6A5F;}
	.st468{fill:#BA756E;}
	.st469{fill:#9B5B54;}
	.st470{fill:#AD6A66;}
	.st471{fill:#F7E8BA;}
	.st472{fill:#E0D1A6;}
	.st473{fill:#F9F2E4;}
	.st474{fill:#DDD6CA;}
	.st475{fill:#E87E94;}
	.st476{fill:#282828;}
	.st477{fill:#4BAF89;}
	.st478{fill:#449976;}
	.st479{fill:#FCBF65;}
	.st480{fill:#E2A759;}
	.st481{fill:#FCB332;}
	.st482{opacity:0.59;}
	.st483{fill:#E09B2B;}
	.st484{fill:#161616;}
	.st485{fill:#E5D7D3;}
	.st486{fill:#F76F34;}
	.st487{fill:#E5852E;}
	.st488{fill:#E0CBA9;}
	.st489{fill:#F2B438;}
	.st490{fill:#D89C32;}
	.st491{fill:#F49E37;}
	.st492{fill:#E26033;}
	.st493{fill:#F99532;}
	.st494{fill:#E2832D;}
	.st495{fill:none;stroke:#6AA590;stroke-miterlimit:10;}
	.st496{fill:#F9EAE5;}
	.st497{fill:#F9E4BD;}
	.st498{fill:#2B2B2B;}
	.st499{fill:#CE8A28;}
	.st500{fill:#FCBE5B;}
	.st501{fill:#DDA552;}
	.st502{fill:#DB5B2E;}
	.st503{fill:#F48C37;}
	.st504{fill:#DD7B31;}
	.st505{fill:#F7845C;}
	.st506{opacity:0.29;}
	.st507{clip-path:url(#SVGID_20_);fill:#6B9EB7;}
	.st508{clip-path:url(#SVGID_20_);fill:#F9EAE5;}
	.st509{clip-path:url(#SVGID_24_);fill:#2D2D2D;}
	.st510{clip-path:url(#SVGID_24_);}
	.st511{clip-path:url(#SVGID_24_);fill:#73BCA7;}
	.st512{opacity:0.57;clip-path:url(#SVGID_24_);fill:#6AA590;}
	.st513{clip-path:url(#SVGID_24_);fill:#4F8472;}
	.st514{clip-path:url(#SVGID_24_);fill:#5C9583;}
	.st515{fill:#333333;}
	.st516{opacity:0.3;fill:#FFE045;}
	.st517{fill:#FFE045;}
	.st518{fill:none;stroke:#FBFBFB;stroke-width:3;stroke-miterlimit:10;}
	.st519{clip-path:url(#SVGID_26_);}
	.st520{fill:#FBFBFB;stroke:#FBFBFB;stroke-width:3;stroke-miterlimit:10;}
	.st521{fill:#9AEDD1;}
	.st522{fill:none;stroke:#E4E4E4;stroke-miterlimit:10;}
	.st523{opacity:0.6;fill:#E2C342;}
	.st524{clip-path:url(#SVGID_28_);}
	.st525{fill:#FF3131;}
	.st526{fill:#E02727;}
	.st527{fill:#D1C7A6;}
	.st528{fill:#BAB091;}
	.st529{fill:#24211F;}
	.st530{fill:#F5E9BE;}
	.st531{fill:#FFD35F;}
	.st532{fill:#E3B23D;}
	.st533{fill:#E3B981;}
	.st534{fill:#AA845D;}
	.st535{fill:#38322E;}
	.st536{fill:#FF9D5B;}
	.st537{fill:#FA8E4F;}
	.st538{fill:#EF7A32;}
	.st539{fill:#C86426;}
	.st540{fill:#FFC356;}
	.st541{fill:#EEA648;}
	.st542{fill:#B77A4F;}
	.st543{fill:#CE9268;}
	.st544{fill:#E5AB83;}
	.st545{fill:#E1DCDA;}
	.st546{fill:#FFBDBD;}
	.st547{fill:#A76D4A;}
	.st548{fill:#9C6440;}
	.st549{fill:#A6BC1B;}
	.st550{fill:#D2D3B5;}
	.st551{fill:#EAEDD0;}
	.st552{fill:#9A9884;}
	.st553{fill:#8B9613;}
	.st554{fill:#FF6384;}
	.st555{fill:#606060;}
	.st556{fill:none;stroke:#D1D1D1;stroke-miterlimit:10;}
	.st557{opacity:0.8;fill:#FBFBFB;}
	.st558{fill:#F9F7F6;}
	.st559{fill:#EAE9E8;}
	.st560{fill:#CF3030;}
	.st561{fill:#8E2828;}
	.st562{fill:#6D1F1F;}
	.st563{fill:#9E2C2C;}
	.st564{fill:#832222;}
	.st565{fill:#681B1B;}
	.st566{fill:#722020;}
	.st567{fill:#A1CC59;}
	.st568{fill:#FF8838;}
	.st569{fill:#FFA162;}
	.st570{fill:#DE6D27;}
	.st571{fill:#E0E0E0;}
	.st572{clip-path:url(#SVGID_30_);fill:#2D2D2D;}
	.st573{clip-path:url(#SVGID_30_);}
	.st574{clip-path:url(#SVGID_30_);fill:#73BCA7;}
	.st575{opacity:0.57;clip-path:url(#SVGID_30_);fill:#6AA590;}
	.st576{clip-path:url(#SVGID_30_);fill:#4F8472;}
	.st577{clip-path:url(#SVGID_30_);fill:#5C9583;}
	.st578{clip-path:url(#SVGID_32_);fill:#73BCA7;}
	.st579{clip-path:url(#SVGID_32_);}
	.st580{fill:none;stroke:#73BCA7;stroke-miterlimit:10;}
	.st581{opacity:0.5;}
	.st582{fill:#2E85ED;}
	.st583{clip-path:url(#SVGID_34_);}
	.st584{clip-path:url(#SVGID_36_);fill:#2D2D2D;}
	.st585{clip-path:url(#SVGID_36_);}
	.st586{clip-path:url(#SVGID_36_);fill:#73BCA7;}
	.st587{opacity:0.57;clip-path:url(#SVGID_36_);fill:#6AA590;}
	.st588{clip-path:url(#SVGID_36_);fill:#4F8472;}
	.st589{clip-path:url(#SVGID_36_);fill:#5C9583;}
	.st590{opacity:0.6;fill:#FBFBFB;}
	.st591{fill:none;stroke:#4F8472;stroke-miterlimit:10;}
	.st592{opacity:0.8;fill:#73BCA7;}
	.st593{fill:none;stroke:#FBFBFB;stroke-miterlimit:10;}
	.st594{clip-path:url(#SVGID_38_);fill:#2D2D2D;}
	.st595{clip-path:url(#SVGID_38_);}
	.st596{clip-path:url(#SVGID_38_);fill:#73BCA7;}
	.st597{opacity:0.57;clip-path:url(#SVGID_38_);fill:#6AA590;}
	.st598{clip-path:url(#SVGID_38_);fill:#4F8472;}
	.st599{clip-path:url(#SVGID_38_);fill:#5C9583;}
	.st600{opacity:0.7;fill:#FBFBFB;}
	.st601{opacity:0.3;fill:#F27D2F;}
	.st602{fill:#F27D2F;}
	.st603{clip-path:url(#SVGID_40_);}
	.st604{fill:#897520;}
	.st605{clip-path:url(#SVGID_42_);fill:#2D2D2D;}
	.st606{clip-path:url(#SVGID_42_);}
	.st607{clip-path:url(#SVGID_42_);fill:#73BCA7;}
	.st608{opacity:0.57;clip-path:url(#SVGID_42_);fill:#6AA590;}
	.st609{clip-path:url(#SVGID_42_);fill:#4F8472;}
	.st610{clip-path:url(#SVGID_42_);fill:#5C9583;}
	.st611{opacity:0.3;fill:#316D4A;}
	.st612{fill:#316D4A;}
	.st613{clip-path:url(#SVGID_44_);}
	.st614{fill:#7A3817;}
	.st615{clip-path:url(#SVGID_46_);fill:#2D2D2D;}
	.st616{clip-path:url(#SVGID_46_);}
	.st617{clip-path:url(#SVGID_46_);fill:#73BCA7;}
	.st618{opacity:0.57;clip-path:url(#SVGID_46_);fill:#6AA590;}
	.st619{clip-path:url(#SVGID_46_);fill:#4F8472;}
	.st620{clip-path:url(#SVGID_46_);fill:#5C9583;}
	.st621{opacity:0.3;fill:#145691;}
	.st622{fill:#145691;}
	.st623{clip-path:url(#SVGID_48_);}
	.st624{clip-path:url(#SVGID_50_);fill:#2D2D2D;}
	.st625{clip-path:url(#SVGID_50_);}
	.st626{clip-path:url(#SVGID_50_);fill:#73BCA7;}
	.st627{opacity:0.57;clip-path:url(#SVGID_50_);fill:#6AA590;}
	.st628{clip-path:url(#SVGID_50_);fill:#4F8472;}
	.st629{clip-path:url(#SVGID_50_);fill:#5C9583;}
	.st630{opacity:0.3;fill:#683C23;}
	.st631{fill:#683C23;}
	.st632{clip-path:url(#SVGID_52_);}
	.st633{clip-path:url(#SVGID_54_);fill:#2D2D2D;}
	.st634{clip-path:url(#SVGID_54_);}
	.st635{clip-path:url(#SVGID_54_);fill:#73BCA7;}
	.st636{opacity:0.57;clip-path:url(#SVGID_54_);fill:#6AA590;}
	.st637{clip-path:url(#SVGID_54_);fill:#4F8472;}
	.st638{clip-path:url(#SVGID_54_);fill:#5C9583;}
	.st639{opacity:0.3;fill:#020202;}
	.st640{clip-path:url(#SVGID_56_);}
	.st641{clip-path:url(#SVGID_58_);}
	.st642{clip-path:url(#SVGID_60_);fill:#2D2D2D;}
	.st643{clip-path:url(#SVGID_60_);}
	.st644{clip-path:url(#SVGID_60_);fill:#73BCA7;}
	.st645{opacity:0.57;clip-path:url(#SVGID_60_);fill:#6AA590;}
	.st646{clip-path:url(#SVGID_60_);fill:#4F8472;}
	.st647{clip-path:url(#SVGID_60_);fill:#5C9583;}
	.st648{fill:#111111;}
	.st649{clip-path:url(#SVGID_62_);}
	.st650{fill:none;stroke:#DFDFDF;stroke-miterlimit:10;}
	.st651{clip-path:url(#SVGID_64_);fill:#2D2D2D;}
	.st652{clip-path:url(#SVGID_64_);}
	.st653{clip-path:url(#SVGID_64_);fill:#73BCA7;}
	.st654{opacity:0.57;clip-path:url(#SVGID_64_);fill:#6AA590;}
	.st655{clip-path:url(#SVGID_64_);fill:#4F8472;}
	.st656{clip-path:url(#SVGID_64_);fill:#5C9583;}
	.st657{clip-path:url(#SVGID_66_);}
	.st658{opacity:0.9;}
	.st659{fill:#366655;}
	.st660{fill:none;stroke:#BDBAB0;stroke-miterlimit:10;}
	.st661{fill:#050505;}
	.st662{clip-path:url(#SVGID_68_);}
	.st663{clip-path:url(#SVGID_70_);fill:#2D2D2D;}
	.st664{clip-path:url(#SVGID_70_);}
	.st665{clip-path:url(#SVGID_70_);fill:#73BCA7;}
	.st666{opacity:0.57;clip-path:url(#SVGID_70_);fill:#6AA590;}
	.st667{clip-path:url(#SVGID_70_);fill:#4F8472;}
	.st668{clip-path:url(#SVGID_70_);fill:#5C9583;}
	.st669{opacity:0.9;fill:#4F8472;stroke:#FFFFFF;stroke-miterlimit:10;}
	.st670{clip-path:url(#SVGID_72_);}
	.st671{fill:#59917E;}
	.st672{fill:#D13333;}
</style>
<g>
	<path class="st126" d="M709.1266479,367.6130371c0,32.4322815-14.7639771,51.3645935-26.9624023,61.6375122
		c-14.7693481,12.5211182-35.3151855,19.2657471-57.786499,19.2657471c-5.1364746,0-10.2729492-0.3227234-15.092041-0.9681396
		c0,0,62.2828979-21.9334717,62.2828979-79.9351196V199.3950958h37.5580444V367.6130371z"/>
	<polygon class="st126" points="232.6299896,199.39534 232.6299896,352.2090454 83.0326462,188.1542969 83.0326462,386.0128479 
		120.2679367,386.0128479 120.2679367,284.4723206 270.1879883,448.5162964 270.1879883,199.39534 	"/>
	<rect x="319.7830505" y="199.3950958" class="st126" width="37.2352943" height="187.4731903"/>
	<polygon class="st126" points="556.2107544,199.39534 556.2107544,352.2090454 406.6134338,188.1542969 406.6134338,386.0128479 
		443.8487244,386.0128479 443.8487244,284.4723206 593.7687988,448.5162964 593.7687988,199.39534 	"/>
	<g>
		<path class="st126" d="M238.5122528,109.396347h-17.3194885v54.1679993H211.25914V109.396347h-17.3194885v-8.8306961h44.5726013
			V109.396347z"/>
		<path class="st126" d="M297.0404358,163.5643463h-9.8490601v-27.1685638h-25.1318054v27.1685638h-9.8490753v-62.9986954h9.8490753
			v26.9185562h25.1318054v-26.9185562h9.8490601V163.5643463z"/>
		<path class="st126" d="M324.6685486,126.2048264h23.0105591v8.9189377h-23.0105591v19.529007h27.9332275v8.9115753h-28.0177917
			h-9.7644958v-62.9986954h9.7644958h28.0177917v8.8306961h-27.9332275V126.2048264z"/>
	</g>
	<g>
		<path class="st672" d="M703.6269531,529.6957397c-0.2593994,1.9521484,2.1564331-0.1691284,0.3150024,1.4889526
			C703.2301636,530.5909424,702.7490234,529.984314,703.6269531,529.6957397z"/>
		<path class="st672" d="M868.6205444,45.0826302c3.2347412,7.804985-5.1462402,13.3122253-3.8813477,20.9425774
			c-0.0317383,0.8235168-2.8926392-1.2554855-2.7710571,0.6819763c2.052063,7.6560898-3.9523926,16.404068-9.7151489,22.843277
			l-0.6833496-0.7444763c-1.0980835,1.2279205,1.0919189,3.9319077,0.1865845,5.3160706
			c-0.5631714-0.1764679-0.6281738-0.7555008-1.5116577-0.6635895c1.5525513,0.955864-0.1567383,3.0109634,0.880249,4.082634
			c-0.864624,0.3749924-2.1759644-0.1360245-3.1763916,0.3897018l1.6207886,1.5220261
			c3.7393799,3.9594727-2.3158569,5.76091-1.0750732,9.8545761c-0.390625-0.3069839-0.6270752-0.7499847-1.1497803-0.6341782
			c0.9730835,6.2241364-1.7102661,12.6945877-2.6640625,18.9609985c-0.6008301-0.459549-1.7680664-1.0900497-2.6455688-0.9962997
			c1.9268799,0.9632111,1.8344727,2.9668427,1.703064,4.6855621c-2.3195801,0.0275726,0.9971924,3.3528748-0.7683716,4.8381348
			l-0.411499-0.3124847c1.7237549,2.0973816-1.9328613,1.6304779,0.3108521,3.6102142l-1.927124,0.3327179
			c2.7345581,1.5716553-2.1793823,1.4944458-1.0689087,3.1212463l0.618103,0.1636047
			c0.3591309,1.3069611-1.2947998,1.3841705-1.1275024,2.5422211l-0.3726807-0.0165405
			c0.0139771,2.5900269-2.0635986,3.4116974,0.2414551,4.1046906c-2.0961914,0.21875-0.0955811-2.5366974-3.1818848-2.1249542
			c-0.1472778,8.45755-3.1871948,16.2276154-5.670166,23.9756165c-1.2060547,0.5808716-1.6699829,1.0496063-2.5999146,0.9650421
			c0.2105103,0.9209442-0.5291748,3.0458984,0.4133911,4.1286011c0.0406494-0.2720642-1.3345337,0.1194763-1.5829468,0.490799
			c-1.3216553,1.1286469,2.0247803,2.3565674,0.4979248,3.5697784c-0.4129028-0.8143311-1.0856934-1.2610016-2.0050049-1.3327026
			c1.3609619,1.8988647,0.5101318,3.5716248,0.5852661,5.3197479c-0.3085938-0.3676453-0.4152222-0.8198395-1.1536865-0.99263
			c1.4780884,2.3620911-1.4342651,2.9723663-0.6333008,4.8822479l-1.1452026-0.9889374
			c-2.3859863,1.8878174,2.5410767,1.6065826,0.9177246,3.3804321c-0.2564087-0.6341705-0.833374-0.6268158-1.3421021-0.8915253
			c1.7832642,2.7205353-0.0264282,5.602829,0.1610718,7.8049927c-0.1461182-0.1764679-0.5147095-0.2610321-0.5147095-0.2610321
			c-0.3804932,2.2076874-1.8423462,4.1690369-1.5404053,6.8289032c-0.8651123,0.6544037-3.1456299-1.3179779-3.3799438,1.0716705
			c2.6871948,0.7757263-0.1289062,4.1432953,3.305481,3.7958832c-1.0523682,1.76651-3.0240479,4.4631348-2.5304565,6.0256042
			c-0.7371216-1.1837921-3.5500488-0.115799-3.2678833-1.7756958l-1.9932861,0.6819763
			c-1.0330811-0.5294037,0.7642212-1.1157837-0.7283936-1.1764526c-0.1516724,0.8308716,0.1601562,3.4852295-0.5002441,4.0569
			c1.1613159,1.9981232,3.7639771,4.3289642,3.3377075,6.8215485c-0.6775513-1.45401-3.1364136-0.30513-3.3494263-1.2150421
			l4.0288696,4.9668121c-0.1295776,0.8327026-2.1571045-0.5036774-1.8296509,0.86763
			c0.7246704,0.1654358,0.9949341,0.8032837,1.453064,1.3381958c-0.3967896,0.2003632-0.3949585,3.5091248-3.1237793,3.0146484
			c-1.1428833,0.0165405-0.1392212-1.4723969-1.3505859-0.8915253c-0.4430542,1.4742432,0.4287109,1.8253326-0.0007324,3.3050842
			l-0.3586426-0.0845642c-0.699707,0.8437347,0.2019653,3.2113342,1.9859009,2.6231079
			c0.3016968-0.6452026-1.6555176-0.25-0.5758057-1.0018158c1.3051147,1.170929,1.1796875,3.0091248,0.7389526,4.4833679
			c-0.2647095-0.6360168-0.9806519-0.7996216-1.6564331-1.2389526c1.428772,2.632309,1.4078369,4.9282074,1.5587769,7.400589
			c1.2357788,0.4356537-2.0026855-1.545929-1.2389526-1.6580505c-2.6313477,2.2646484,0.5786133,6.6046295-2.6989136,8.1413727
			c-0.0988159-0.4558716,1.8347778,0.3602753,1.4763184,0.27388c-0.59375,1.3069611-2.3786621,0.6672668-1.9923706,1.76651
			c-1.090271-0.2536621-0.0209351,1.2205811,0.008728,2.233429c0.6190186,0.7168884-0.5910034,0.0716858-0.4552002-0.7591858
			c0.4974976,1.5587769,0.4907837,7.1597595-1.9939575,9.5953979c0.7214966,0.1690979,1.9953613,2.6304321,1.7003174,3.2774963
			l-1.5569458-0.7904358c-1.1773682,0.2996216-0.5820312,2.3051147-2.0217896,1.9668884
			c1.5272827,2.0789795,0.0831909-6.0917969,0.9995117-3.6470032c-1.5321655,0.0625,1.7384644,3.5495605-0.3584595,2.4135742
			c-0.3770752,1.3749695,1.0475464,3.2793274-0.9041748,4.078949c0.385376-0.2904358-1.9151611-1.827179-2.1546021-0.6985168
			c-0.3253174,2.0183411,0.6063843,0.7996216,0.6537476,2.5367126l0.3570557,1.1948242
			c1.5732422,0.5772095-0.7662964,1.6525574,1.2471924,1.5091553c-1.3935547-0.1875-0.090271,3.0587769-2.6743164,2.0091553
			l-1.9967651-0.9356384c-0.1116333,0.8804932,1.7589722,2.0679626,2.4726562,3.0201416
			c-0.2312012,0.0441284-0.7194824,0.1286926-1.0436401-0.0202026c3.1455688,1.1562195-0.902832,1.9006958,1.2457886,3.6819153
			c-1.6672363,1.39151-1.5217896,4.4042969-3.7792969,4.5881348c0.5342407,1.6506958,1.2906494,3.2462463,0.1100464,4.5568848
			c-0.1989746-0.4025574-0.1574097-0.8510742-0.8173218-1.1580505c-1.2490234,0.6599121-0.4838867,1.1672363-0.2506714,2.2095032
			c-0.4126587-0.3492737-2.4827271,1.3216553-3.9606323,2.0256958c0.5245972,1.639679,2.3896484,1.7370911,3.4016113,2.2095032
			c-3.5405884,0.2058716,0.8152466,4.4172058-2.5302734,5.0238037c-0.2869873-0.6011047-0.9163818-2.4411316-2.0682373-1.5900574
			c-3.5318604,0.2095642,1.5337524,3.2076721-0.6134644,4.6855774l2.7692261,0.3602905
			c-1.9000244,0.3529358,0.5797119,3.3804321-2.0183716,2.3197937c0.730957,0.9632263-1.6072388,2.0404053,1.0083008,2.6433411
			c-3.1920776,2.53302-1.2313843,8.2681885-6.4312134,8.7810669c0.2762451,0.5992432-0.5316772,1.6120911,0.8550415,1.7995911
			c1.6663208-0.3106689-0.6721191-1.4025574,0.3922119-1.3749695c-0.0562744,0.4393311,0.6121216,0.7573242,0.9480591,0.9135742
			c-0.9076538,0.8143311-1.3460083,1.5440979-3.1548462-0.0863953c-2.2965698,1.7223816,3.5884399,3.7002869,1.6716309,6.2186279
			c-1.0112305-0.46875-1.4815674-0.3823547-1.5854492,0.5018311l1.2931519,2.1617126
			c-1.0146484,1.7003479-2.7331543,0.2665405-4.536438-0.2665405c-0.0091553,1.0808716-0.4889526,2.2536316,0.6998901,3.1304626
			l-2.6309204,0.4632263c1.9069214-0.3400879,0.8136597,1.1562195,1.104126,1.7609863l-0.2904663-0.6047668
			c-0.8110962-0.0625-0.7136841,1.2224121-0.6762085,1.8676147c1.1486206,0.2242432,1.9723511-0.7886047,2.4978638-1.3179932
			c0.6220093,0.7573242,0.1854248,1.4779053,0.8942871,2.4429626c-1.6803589-0.7885742-1.7639771,1.1948242-2.2005615,1.9154053
			c-0.6688843,0.7720337,1.2437744,1.5183411,1.0955811,1.7591553c-0.9182129-0.2720642-0.6261597,1.4117432-1.6704712,0.3014526
			c-0.1898193-0.3988953,1.109375-0.4099121,0.4760742-1.1745911c-0.8669434,0.3713074-2.4266357-0.2095642-1.6715698,1.3859863
			c0.567749,1.20401,3.5313721,0.8860168,1.8569946,2.2756958c-0.2858276-0.6011047-0.9581299-0.9136047-1.468689-1.4705505
			l-1.4404907,1.3418579l1.5700684,0.5863953c-0.475647,0.0900879-0.5629272-0.1065979-0.8110962-0.0735168
			c1.5204468,1.0312195-0.2962036,2.6672058,1.4700928,3.6506653c-0.1047974,0.8823242-1.668396,1.3823242-2.1065674,2.1120605
			l-0.0889282-0.1966858c-1.2518311,0.6599121-1.0496216,2.1433411-0.2373657,3.3032532l-0.3336182-0.15625
			c-0.2971191,0.4852905-0.4494629,1.8124695,0.2729492,2.7756958c-1.6366577,0.9411316-6.1625366-1.5110168-4.6356812,0.6120911
			c-0.3841553,1.3694763,2.2329712,3.0697937,3.4284668,2.8583984c-1.8612061,2.077179-0.1652222,5.6800537-3.3786011,7.1193542
			c0.5286865,0.5588074,1.0045776,0.4705811,1.1454468,1.3143005c-1.7998657,3.3547058-0.5825195,8.1395569-4.6460571,9.9465027
			c-0.3292847-1.2518311-1.5682373-0.5919189-2.4852295-0.8694763c1.1449585,1.3198242-1.8170776,0.5367432,0.5284424,1.6488647
			c1.4673462,0.3860168,2.1394653,0.702179,3.0504761-0.1084595c0.0737915,2.3768005-0.9884644,5.6083374-2.7207642,6.3436279
			c0.8626099-0.3694763,1.1511841,0.2315979,1.4294434,0.8381958c-2.239624-0.9098816-3.1060791,0.5422668-2.687439,1.9944458
			l1.3469238,0.6305237l-1.6920166,0.295929c0.2970581,0.6029358,2.7653198,1.4705811,1.0344238,2.202179
			c-0.559021-0.1176453-1.1311646-0.2297974-1.6004028-0.1452332c0.7382812,1.6029053,2.1061401,3.9723511,0.4880371,4.9135132
			l-2.3981323,0.4135742c0.0369873,0.6415405,0.9489746,2.0054932,1.8673706,1.2003479
			c-1.9716797,1.8639526-2.6265259,3.2720032-4.6260376,3.40802c2.994873,5.3326111,1.2633057,11.0677795-0.5664062,15.5070496
			l-1.0010986-0.4834595c-1.3878784,0.8915405,1.6162109,1.2463074,0.6056519,1.8547363
			c-0.862793-0.7297668-2.4755859,0.2040405-3.3781128-1.1654053c-1.6854248,1.3749695,1.0581055,2.8565674,1.1513672,4.1524963
			c1.3134155,0.6323242-0.5728149-1.2095337,1.0944214-0.4044189c0.4264526,0.3602905-1.878418,2.0551147,0.1070557,3.0256653
			c-0.9599609,0.1636047-2.3751831-0.6911621-3.1361694-1.2095337l0.6481934,1.4062195
			c-2.8616333,0.4852905-3.3379517-4.4300537-6.7824707-4.0679321l-0.0029907,1.09375
			c-2.4875488,0.2040405-1.5854492-3.4227295-3.1520386-1.2095337c0.6644897,1.4135742,3.3682251,3.3436584,4.6037598,2.6984558
			c-0.1709595,2.4190674,4.6035156,2.6984863,3.6304321,5.0385132c-1.4404907,0.2426453,0.3513184-2.01651-1.5153809-2.1341553
			c-2.0500488,0.5643311,0.1769409,2.5808411-0.7460938,3.3859558c1.1571655-0.8492432,2.9381714,0.8014526,3.0744019,1.6506958
			c-1.3855591,0.8897095-1.699646-1.4558411-2.4875488,0.1985474c1.1019897,0.6911621,1.4675903,2.5826416,2.7593994,1.4907532
			c2.5038452,1.5422668-1.3527222,1.5440979,0.4259644,3.1947937c-2.0996704-0.0845642-3.8064575-3.2719727-5.411377-1.702179
			c1.9486694,0.3253784,1.6998291,3.187439,4.7733154,3.1120911c-0.7883911,0.5643311-2.2612305,0.1488953-3.2044678-0.7757263
			c-1.4944458,0.6764526,2.4716797,3.7168274-1.2952271,2.8234558l1.7554932,1.0054932
			c-0.7263184,0.1231689-1.3494873,0.4430237-2.5518799,0.6378784c-0.3540649,0.9245911,1.5096436,3.8822632-1.2988892,2.8252869
			c0.1902466,0.4007263-0.6709595,2.4889221,1.5762329,2.3400269c1.6530151-0.9172363-0.9119873-2.0164795,1.9976807-1.8473816
			c-2.4875488,0.1966858-0.3775635,2.0091553,0.081543,3.0275269l-1.1387329-0.2518616
			c0.2694702,0.6029358-0.3286133,1.5735168,0.7589111,2.26651c-0.5091553-0.5661621-1.317749-0.6415405-1.7088013-0.3676453
			l1.5043335,1.0532837c0.1936646,2.1433411-3.0827026-0.5716553-3.2200928,1.4007263l-0.8234863-1.8179932
			c0.1729736,0.3952332-1.59375,0.4742737-1.3724365,1.51651c1.4100952,0.8621216,3.0159912,2.1212769,4.1014404,2.8197937
			c0.3152466,1.2499695-1.8733521-0.1360168-0.6555176,1.4062195l-1.3821411-1.9466248
			c-0.4324341-0.3713379-2.8200073,0.0165405-3.2469482,1.3878174c0.2284546,1.0496216,1.9631958,3.1617126,3.2667236,2.077179
			c-0.2122803,0.6929932-1.4661865,1.327179-2.3894043,0.4007263c-0.006897,1.7260742,1.704895,0.3639526,2.1918335,2.0256958
			c-1.2008057,0.1948242-3.2285767,1.39151-5.0546265,1.9006958l-2.0645142-2.2756958l-0.3407593,0.9172668
			c-1.6300049-1.9080505-1.7672119,0.0625-3.6832886-1.358429c-0.5560303,0.5110168-0.0829468,1.5312195,0.2651978,2.3345032
			c4.0759277-0.6452026,3.9959717,3.7094727,7.3206177,4.2738037c-0.0446167,2.8289795-8.1965332-1.0992432-4.2237549,3.2609558
			c0.9710693-0.1452026,2.914917,1.9393005,2.5797119,0.0294189c-0.9074097,1.4484863,2.765564,2.1764221,0.8027954,3.5752869
			c-0.7987061-1.8308411-3.7062378,0.3492737-4.8652344-2.2922363c0.9940186,0.5,1.1847534-0.827179,0.9953613-1.2370911
			c-1.430542,0.2242432-3.1065063-1.2426147-3.6793823,0.3621216c-0.0470581,1.0845337-0.4673462,2.4466553,1.2339478,2.8326721
			c1.8096924,0.5937195,0.3423462-1.5661621,1.9335327-0.2959595c-0.0717163,2.1782532-2.9179077,1.5330505-0.0287476,3.4723511
			c0.1969604-1.3216553,2.1536865-0.9760742,3.3765869-0.5183716l0.2338867,1.7058411l-1.0916748-0.702179
			c-1.6801147,1.9999695,1.9202271,1.4484863,0.8031006,3.5734558l-2.7285767,0.2058716
			c-1.8354492-1.2536621,2.0603638-2.9282532-1.3816528-3.7058105c-0.6541748,1.4007263,0.8529053,2.4815674-0.4906006,3.5458984
			c-0.1746216-0.4080811-0.1065674-0.8511047-0.293396-1.2573242c-0.2966309,0.4815979-4.8540039-0.5680237-3.0302734,2.4153748
			c0.6155396,1.4246216,1.0755615,0.7058716,2.2977295,1.1746216c-0.4553833,2.4631653,0.5533447,3.6120605,0.2088623,5.1855469
			c-2.2990723-1.1819763-1.1780396,2.5679626-3.0495605,0.0183716c1.6821899-0.2518311,2.7487793-3.672699,0.7424316-5.3233948
			c-3.1550293-0.1783142,1.0530396-1.6838074-1.6594238-3.2205505c-0.7300415,1.8418884-3.5103149,0.7426453-5.4594727,0.3786926
			c-0.3122559,0.4705811,0.2854004,1.2499695,0.4645996,1.6617126c1.6571655,0.84375,1.8703613,0.1580811,3.6688232,0.7610168
			c-1.2122803,1.9098816-0.9586182,4.2609558,0.3150024,6.0201111c-1.1031494,0.3841858-2.7540894-0.4632263-2.624939-1.3455811
			c-0.3759155,2.6580505-1.5302734,5.2241516-2.9562988,7.3638306c3.3887329-0.4742432-0.321228,2.8565674,2.4089966,2.6911316
			c1.1065674-1.0220642,3.5235596-1.3676453,4.5290527-0.2059021c-0.4797363,0.7224121-1.2253418-0.4797668-1.9528198-0.3731384
			c1.1626587,1.5716553-3.0562744,0.6433716-0.9985962,2.5275269c-0.0579224-2.5955505-3.2694702-1.7131958-5.3225098-2.9484863
			c0.6328125,2.0845337-1.5440674-0.6507263-2.1477051,0.9503479c0.6171875,2.0698242,0.8354492,4.4190369,0.6334839,6.3969421
			c-2.9399414,1.4650269-2.196167,5.6983948-2.8744507,7.7535095c-1.508728,0.6231384-3.7233276-1.0532837-4.5823975-0.0772095
			c-0.4549561,1.3565979,3.0545654,0.0477905,1.1669922,1.5882263l-0.4211426-0.3823853
			c0.3708496,0.8345337-3.0709839,2.9650269,0.2180176,4.9502563l-2.4342041-1.6708984
			c-0.3922729,0.2702026,0.081543,0.8529053,0.2398682,1.2702026c-0.8770752-0.3327026-1.8462524-0.2224121-2.1720581-1.0441284
			c-2.3441772,0.46875-0.7481689,2.6506958-1.2171021,3.9981079l1.9273071-0.2058716
			c0.3076782,2.7646484-1.8783569,3.6359253-2.2246704,6.0458374l-1.5160522-0.7114258l0.3864746,1.6820068
			c-1.3588867-0.9429932-2.80896-0.1691284-1.8446045,1.0458984l-2.3864136-4.9429321
			c1.2919922-0.5496216,1.4438477,1.7941284,3.2007446,1.8474121c1.5263672,0.0588379,1.9473267-2.1341553,0.5930176-3.0715942
			c-0.4880371,0.6984863-0.1640625,0.87677,0.1456909,1.7039795c-2.25177-0.6397095-1.6865234-1.7702026-2.8825073-2.9356079
			c-0.078125,0.4375-0.9666748,0.7352905-0.322876,1.1029053c-0.7260742-1.22052-0.5629272-2.0789795-0.0751343-3.40802
			c0.4719849,1.2279663,1.5296631,0.0606689,2.0075684,0.6470947c-1.852417-0.8786621-1.9204712-2.3584595-0.7247314-3.7609863
			c2.6668091-0.2867432-0.1378174-3.5771179,1.1601562-5.2498779c1.6341553,1.5201721,2.8303833,3.1231079,3.1235352,4.5715942
			c1.465271-0.7996216,0.4793091-1.3418579,1.9103394-2.1617432c-1.2207642-1.1433411-3.2722168-2.4172058-3.560791-4.3142395
			l1.4577026,0.4669189c-0.1904907-1.6948242-2.3039551-2.5091553-1.2299805-4.1524963
			c1.8609009-2.8087463,3.0571289-5.9796448,4.1239624-8.2608643l1.4609375,0.4448547
			c-2.5650024-2.4484863,0.5169678-4.7793274-0.182251-7.0402832c2.4976807-2.4962769,0.9807129-7.0494995,4.012146-7.6983948
			c0.8030396-5.7296448,1.3795166-10.768158,3.8776245-16.0989075l1.7642212,1.6672363
			c-1.1862793-1.5330505,1.4342651-0.2169189,1.473999-1.295929c-2.0744019,0.5238953-1.6943359-2.1120911-2.7319946-3.2462463
			c2.5197144-1.8786621,1.8099365-5.6855469,1.0978394-8.3803406l1.4724121,0.4172668
			c-1.9487305-3.1543579,1.3342896-4.9686584,2.7232666-7.5733948c0.7067871-0.1121216,2.2375488-0.1433716,2.355896-1.0201721
			c-1.8193359-2.2995911-1.3853149-3.0256958-2.0913696-5.7167969c0.5500488-1.6010742,2.024292-3.999939,3.4902344-5.3197632
			c-1.1920776-7.1285095,2.9390869-12.6063538,3.0720825-19.5473633l1.8540649,0.1176453
			c-1.5966797-7.3086853,4.2119751-13.692749,4.086792-19.5124817l2.7455444,1.4687195
			c1.4464722-1.3308411,0.4671631-3.9760132-1.7318115-4.2425537c1.4291992-1.3437195-0.0718994-4.5550537,2.6647339-4.8032227
			c1.0881958-1.4962769-0.6702881-2.4925842-0.6057129-4.0127869c2.206543-2.9870605,2.3630371-4.3160706,2.8583984-7.6524048
			l-0.4402466,0.7224121c0.5264282,0.5569763,1.7575684,0.9963074,2.1998901,0.2702332
			c-0.4196167-1.4429932,2.2092285-4.0789795-1.6550903-4.0477295c3.1228638-2.7131653,0.9489746-8.4024048,4.7411499-10.7957153
			c-1.0458984-0.0331116-0.9537964-0.9190979-1.4804077-1.4779358c0.9372559-2.968689,3.8790283-5.4575806,3.0339355-8.3490906
			c0.6309814-0.3179932,1.3710327,1.2775574,1.8659668,0.1047974c-0.1295776-0.8327026-1.2349854-0.4227905-1.4845581-1.4742432
			c-0.2171021-5.3804016,4.9888916-9.128479,5.9475098-13.646759c0.6810303-8.361969,4.2494507-16.1522522,6.331665-23.7054138
			l0.6725464,0.3106689c-1.8676147-3.3547058,4.6244507-4.9649658,1.2387085-8.2553406
			c0.8584595-0.3731689,1.0424805-2.1488647,2.2483521-1.2757263c-1.2497559-2.59552,3.5714111-4.9888611,2.098999-8.6321716
			c-0.152832,0.2426453-0.0581665,0.4393311,0.1481934,0.8418884c2.4755859-2.4024963,1.1842651-5.6414185,3.5700073-8.2516479
			c0.2010498,0.4080811,0.2401123,1.0440979,0.9089966,1.358429c1.7207642-0.75-2.0535278-3.75177,1.5332642-3.31427
			c0.1852417-0.6875-1.5383301-1.0275574-1.5744019-0.5790405c3.4698486-6.282959,3.609314-14.1338806,5.0817261-21.3561707
			c3.6237183-4.3528442,5.7790527,1.5202026,4.5313721-3.2333984c0.7543335-0.1139526-1.2171021-0.6488647-0.5011597-0.4797668
			c-0.4510498-1.82901,4.53302-1.1654053,3.1044922-2.7940674c-2.2129517-0.2279358-0.9328613-1.077179-2.1807861-1.5128174
			c2.3269043-2.6231079,4.3953247-2.6378174,3.593689-5.5568695l1.0321045,0.5312347
			c-2.1722412-3.8161011,0.5289917-6.564209-2.2570801-10.0935364c4.3756104-15.8103333,7.1841431-31.4000854,11.7003784-46.7490387
			c5.519165-14.8213806,8.6951294-30.0655518,15.571167-44.7214966c4.0317993-2.6414948,4.0401001-2.9337616,4.1593628-7.2424927
			c0.4129028,0.3106537,0.4351807,0.5919037,0.9560547,0.4705811c-2.2767944-0.9632263,0.6835938-2.8381805-1.4370117-3.9484558
			c2.2945557-5.4998779,3.3862305-10.9078522,5.2890015-16.718399c-0.0533447,1.0018158,1.7102051,2.0955429,1.9176636,0.955864
			l-1.1166992-1.6378403l0.7123413,0.0294113c-0.0988159-0.8602753-0.9839478-2.0569382-1.9910278-1.5367279
			c2.7603149-15.2699051,12.3867188-28.0343475,16.6552124-42.4936066
			c2.1702271-3.0514069,2.9749146-8.1818161,3.8002319-12.0346756c6.8674927-9.830677,13.0980835-18.6705666,15.1000977-30.5581894
			C863.546875,36.2556076,868.9403687,40.0386162,868.6205444,45.0826302z"/>
		<path class="st672" d="M704.269165,527.4935913c1.288147,0.1176147,2.4130859-0.8492432,3.5279541,0.7830811
			C706.6806641,527.9420776,705.2285156,528.0615845,704.269165,527.4935913z"/>
		<path class="st672" d="M729.1379395,498.9665833c-0.3267822-0.170929,0.6491089-0.3051147,0.8841553-0.3382263
			c-0.0714722,0.4448547,0.7584839,1.1966858,0.0291748,1.3014526
			C730.1199951,499.4776001,729.5533447,499.3397522,729.1379395,498.9665833z"/>
		<path class="st672" d="M733.0148926,490.6193542c0.9894409,0.5054932,1.1491089,2.6488342,0.8791504,3.7848206
			L733.0148926,490.6193542z"/>
		<path class="st672" d="M740.1445923,484.1176453c1.1221924-0.3823547,1.5325928-0.0184021,1.1716309,0.9099121
			C740.7420044,484.8988647,740.5756226,484.4889526,740.1445923,484.1176453z"/>
		<path class="st672" d="M737.9936523,482.7003784c0.2162476-0.6764526,0.9437256-0.7885742,1.6497803-0.9043884
			C738.74823,481.5055542,739.6478271,483.5459595,737.9936523,482.7003784z"/>
		<path class="st672" d="M747.2211914,466.2963257c0.0631714-0.4503784-0.4864502-1.6617432,0.8009644-1.6525574
			C747.0656128,464.8037109,748.6342773,467.1510925,747.2211914,466.2963257z"/>
		<path class="st672" d="M748.4472656,457.6163635c0.1578369-0.2389832,0.3876343-0.2794189,0.2008057-0.6856689
			c0.6401978-0.3179932,1.2263184,0.4522095,1.1847534,0.8952026L748.4472656,457.6163635z"/>
		<polygon class="st672" points="793.2492065,307.9448242 793.4759521,308.9907532 792.486084,308.5275269 		"/>
		<path class="st672" d="M814.1040039,242.8689728c-0.3773193-1.0937347,1.1784668-0.2977905,1.3795776-0.3952179
			C815.3348999,243.3027802,814.2880249,241.7660522,814.1040039,242.8689728z"/>
		<polygon class="st672" points="820.1604004,206.1197357 820.1022339,206.395462 817.9938354,205.6160583 		"/>
	</g>
	<g>
		<path class="st672" d="M816.5563965,108.1490936c-0.8695679-0.7626648-2.2713623,1.1546783-1.2283325-0.3183746
			C816.4661255,107.65728,817.3535156,107.6097641,816.5563965,108.1490936z"/>
		<path class="st672" d="M881.2911377,359.0956116c-0.9539185-2.9579773-1.8567505-6.956604-2.9484863-10.1854553
			c-0.1235352-0.380127,0.2340698,0.0404053-0.0522461-0.8149414c-1.1891479-3.0910339-2.5160522-8.1184082-3.0637207-12.1408081
			l0.1734619,0.2043457c-0.1021729-0.7674255-0.7294312-1.5609741-0.8886108-2.3592834
			c0.0808105-0.0285034,0.1817627,0.2185974,0.2459106,0.0047607c-0.2981567-0.1282959-0.4858398-1.3851318-0.7697754-1.6631165
			c0.0202026-0.3397522,0.2363892-0.3682556,0.2506714-0.8030701l-0.4241333-0.3611145
			c-1.0917358-1.0311584-0.7578735-3.0435181-1.6358032-4.6235046c0.1057129,0.0570374,0.2150269,0.2067261,0.2589722,0.0475159
			c-1.2651367-2.5778198-2.1501465-6.0038757-3.2478027-8.9784851c0.1936035,0.0760193,0.5095825,0.1069031,0.6378784-0.1211853
			c-0.5084229-0.0166321-0.899231-0.9218445-1.2307129-1.708252c0.4039307-0.5108032-0.8719482-1.2615967-0.8731079-2.295105
			l0.1413574,0.0475159c-0.7650146-0.5464478,0.0202026-1.1380615-0.8268433-1.5181885l0.2982178-0.5678406
			c-0.8707886-0.0879211,0.1092529-1.1356812-0.4561768-1.6061096l-0.1591797,0.0665283
			c-0.3587646-0.4942017-0.0368652-0.8957214-0.3207397-1.3661499l0.0807495-0.0760193
			c-0.5666504-1.1309204-0.2993774-1.9577332-0.9503174-1.7415466c0.4074097-0.5701904,0.5761108,1.0881653,1.1499023,0.2138367
			c-1.7854614-3.7444153-2.8629761-7.8214417-4.0057373-11.7772827c0.1912231-0.5393372,0.2102661-0.8553467,0.4870605-1.0406494
			c-0.2732544-0.3492432-0.5631104-1.4516602-1.0905762-1.68927c0.0534668,0.1259155,0.3516846-0.3777466,0.3361816-0.5987244
			c0.1176147-0.812561-1.1487427-0.5250549-0.9978638-1.4207764c0.3183594,0.2494812,0.6201172,0.2779846,0.9075928,0.0831604
			c-0.8505249-0.4894409-1.0050049-1.4184265-1.4528198-2.1549377c0.1829224,0.0831604,0.3255005,0.2518311,0.5903931,0.1425476
			c-1.0252075-0.651001-0.2791748-1.6393738-0.9954834-2.2618408l0.6022949,0.1377869
			c0.293396-1.4136353-1.1951294-0.0546265-1.1238403-1.2235718c0.2399902,0.2066956,0.4217529,0.0593872,0.6498413,0.0451355
			c-1.2426147-0.7222595-1.3922729-2.4139099-2.0147705-3.3096008c0.0938721,0.0379944,0.2387695-0.0190125,0.2387695-0.0190125
			c-0.4407349-1.0430298-0.4431152-2.259491-1.241394-3.3167419c0.1318359-0.5036926,1.444519-0.2542419,0.9147339-1.3400269
			c-1.1558838,0.3730164-1.0358887-1.8009033-2.1810913-0.7507629c-0.1009521-1.0240173-0.0950317-2.6942749-0.7020874-3.2240906
			c0.5939941,0.306488,1.3673096-0.9004517,1.6999512-0.1188049l0.5761719-0.8244324
			c0.5286255-0.0498962-0.0012207,0.6818848,0.5797119,0.3088684c-0.1532593-0.396759-0.9645996-1.4469299-0.8600464-1.8674622
			c-0.9705811-0.5393066-2.6194458-0.822052-3.1469116-1.9886169c0.6676636,0.4300537,1.328125-0.7270203,1.6619263-0.4015198
			l-2.9876709-0.9931335c-0.1853027-0.3872681,1.012146-0.3825073,0.4942017-0.8695679
			c-0.3409424,0.1306763-0.632019-0.0641479-0.9717407-0.1615601c0.1069336-0.1948242-0.854126-1.5799561,0.4264526-2.1311646
			c0.4728394-0.3255005,0.473999,0.5797119,0.8161621,0c-0.2293091-0.7460327-0.6949463-0.651001-0.9361572-1.3922729
			l0.1758423-0.0641479c0.0606079-0.5512085-1.0073853-1.2901306-1.6013794-0.5440979
			c0.0594482,0.3563843,0.7792969-0.3587646,0.5369873,0.2589722c-0.8945312-0.1235352-1.3863525-0.9265747-1.6334229-1.6654968
			c0.3029175,0.1900635,0.6616821,0.0570374,1.0822144,0.0498962c-1.3898926-0.6985168-2.0765381-1.6560059-2.8986206-2.6396179
			c-0.6818237,0.1734314,1.3626099,0.0689087,1.0549316,0.3349915c0.5060425-1.698761-2.2808838-2.5730743-1.2520752-4.1577911
			c0.1853027,0.1615601-0.9598999,0.3848877-0.7686157,0.3159943c-0.131897-0.7127686,0.899231-0.9669952,0.380127-1.3091278
			c0.5892334-0.2138214-0.3659058-0.5108185-0.6973267-0.9218445c-0.5179443-0.1140442,0.2578125-0.2019501,0.4502563,0.1805725
			c-0.7068481-0.5013123-2.4970703-2.8035583-2.0599365-4.5427094c-0.40625,0.144928-1.8330078-0.4822998-1.9018555-0.8339386
			l1.0322876-0.1425476c0.4906006-0.4775543-0.4561768-1.1214294,0.3777466-1.4160309
			c-1.4338379-0.3944092,1.911438,2.5255737,0.6700439,1.7985382c0.7460327-0.4870453-2.0088501-0.9360962-0.5951538-1.1000366
			c-0.2495117-0.677124-1.595459-1.0240021-0.8636475-1.9434814c-0.0997925,0.2352142,1.5668945,0.1663208,1.3269043-0.3682556
			c-0.4810791-0.9289703-0.5666504-0.144928-1.1546631-0.8410645l-0.5749512-0.3801422
			c-1.0038452,0.2447205-0.1461182-0.9075928-1.1439819-0.2328339c0.7887573-0.3516388-0.9741211-1.2734833,0.7329102-1.6417542
			l1.3590088-0.2328339c-0.225708-0.3943939-1.6048584-0.3017426-2.3010254-0.4680481
			c0.1069336-0.0902863,0.338562-0.2756042,0.56073-0.3159943c-2.0610962,0.5036926-0.1508789-1.0525208-1.9007568-1.1095428
			c0.4276733-1.0834045-0.677124-2.2594757,0.5013428-3.0435181c-0.8517456-0.5013123-1.8258667-0.9052124-1.6192017-1.8080597
			c0.2495117,0.0997925,0.380188,0.2946167,0.854187,0.2090912c0.473938-0.6628876-0.1259766-0.6248627-0.6177368-0.9717407
			c0.3504028,0.009491,0.9455566-1.3257599,1.5562134-2.0860443c-0.8588867-0.4941864-1.9660645,0.0665283-2.7097168,0.199585
			c1.9707642-1.2212067-2.0254517-1.5110779-0.2958374-2.8368225c0.3813477,0.1496887,1.3863525,0.6866302,1.7640991-0.0308838
			c2.0076294-1.2330933-2.0135498-0.7935486-1.2686768-2.0860291l-1.7712402,0.7602844
			c1.0050049-0.7626648-1.5574341-1.1618195,0.3753662-1.5894775c-0.7828369-0.144928,0.2411499-1.3471375-1.553833-0.7246399
			c1.0335083-2.0717773-2.2808228-3.6968994,0.7875977-5.6475067c-0.3896484-0.144928-0.24823-0.822052-1.192688-0.4276581
			c-0.9372559,0.6842651,0.9349365,0.330246,0.2542114,0.677124c-0.1246948-0.1924438-0.6616821-0.0950317-0.9301147-0.0427551
			c0.270813-0.6296234,0.2850952-1.0691528,2.0218506-1.0287628c0.8422852-1.4659271-3.6291504-0.2613525-3.3535767-1.9054718
			c0.8244629-0.1567993,1.0952759-0.3516235,0.8327637-0.7389069l-1.6464844-0.411026
			c0.0142212-1.0192566,1.6785889-1.0430145,3.0518188-1.449295c-0.3931885-0.4324036-0.5120239-1.062027-1.6227417-0.9978638
			l1.5657349-1.0929108c-1.1356812,0.7935486-0.9693604-0.1781921-1.3887329-0.3159943l0.4193726,0.1378021
			c0.5618896-0.2542267,0.0202026-0.7294006-0.248291-0.9717407c-0.8529663,0.3112335-1.0192871,0.9954987-1.1677246,1.3851471
			c-0.6985474-0.0831604-0.6818848-0.5179443-1.5229492-0.651001c1.4207764-0.2732239,0.7246094-1.0834045,0.7424316-1.5182037
			c0.1567993-0.5393219-1.4196167-0.1639252-1.4136353-0.3088531c0.7258301-0.2138367-0.1199951-0.772171,1.0144653-0.7032623
			c0.2803955,0.090271-0.5927734,0.5488281,0.1271362,0.6272278c0.4431152-0.4466705,1.7236938-0.7650299,0.6046753-1.1285553
			c-0.8469849-0.275589-2.7406006,0.8909607-2.1395264-0.2423401c0.4276733,0.135437,1.0062256,0.0213928,1.5681152,0.0617828
			l0.4703979-1.0335236l-1.3007812,0.320755c0.2910767-0.2019501,0.4264526-0.1544342,0.5844727-0.2565918
			c-1.440979,0.1330414-0.8244019-1.1499329-2.4293213-0.9099731c-0.2744141-0.3801422,0.6141357-1.1309204,0.6355591-1.5728455
			l0.1389771,0.0451508c0.6165161-0.7032623-0.0997925-1.2117157-1.1309204-1.3732758l0.296936-0.0570221
			c0.0178223-0.2969818-0.3955688-0.8695679-1.2924805-0.9836121c0.7876587-0.9527283,4.9858398-1.6298676,3.0649414-1.9078369
			c-0.2542114-0.6747589-2.8154297-0.3896484-3.5899658,0.1259155c0.519104-1.4849396-2.1858521-2.254715-0.4229126-3.984375
			c-0.6165771-0.0213776-0.9301758,0.185318-1.3804321-0.0879059c-0.0368042-1.9553528-2.9650879-3.3309937-0.6355591-5.5405731
			c0.7709961,0.3563843,1.4398193-0.3587646,2.2547607-0.5963593c-1.418396-0.0783997,1.1713257-0.8885803-1.0834351-0.4347839
			c-1.282959,0.4015198-1.9304199,0.532196-2.2844238,1.183197c-1.0524902-0.8814545-1.6156006-2.5089417-0.5797119-3.4474182
			c-0.5131836,0.4680481-0.9907227,0.3492432-1.4671021,0.2233276c2.1264038-0.5013123,2.1941528-1.3851471,1.2496948-1.779541
			l-1.3257446,0.2732239l1.2034302-0.7579041c-0.4894409-0.1164246-2.8071289,0.4965515-1.7581787-0.441925
			c0.4918213-0.1686859,0.993103-0.3444977,1.328125-0.555954c-1.2663574-0.330246-3.3892212-0.6985168-2.5065918-1.6750031
			l1.7451172-1.0834045c-0.3052979-0.2304688-1.6346436-0.3920288-2.0230713,0.2684784
			c0.7792969-1.4683075,0.6830444-2.2499695,2.2570801-3.081543c-4.7791138-0.8410645-5.9920044-3.6422424-6.4695435-6.0228882
			l1.0679932-0.2185822c0.7709351-0.8862-1.9387817,0.1829529-1.3613892-0.4466553
			c1.0643921-0.0736542,2.0135498-1.0667877,3.4034424-0.9194794c0.8197021-1.1903229-2.1965332-0.6391144-2.8748169-1.0810242
			c-1.4172363,0.2946014,1.0454102,0.2185822-0.7519531,0.5892181c-0.5333862,0.04039,0.6676025-1.5158234-1.4932861-1.0738983
			c0.7507935-0.4466705,2.3687744-0.7032776,3.2633057-0.8196869l-1.2057495-0.2589722
			c2.2666016-1.3423767,4.9014282,0.2969818,7.7120972-1.2307129l-0.4822998-0.411026
			c2.0801392-1.0881653,2.8807983,0.6438599,3.2763672-0.8268127c-1.1915283-0.2637329-4.4155884,0.1164093-5.203186,0.8576965
			c-0.9384766-0.9717407-5.2305298,0.8672028-5.4621582-0.3943939c1.147522-0.6771393,0.6236572,0.8909454,2.3045654,0.1734314
			c1.5348511-1.0453949-1.3364258-0.8838348-0.899231-1.5585785c-0.6260986,0.7864075-2.949707,0.9052124-3.4700317,0.6486053
			c0.8042603-0.8957062,2.1715698-0.1591797,2.0979614-1.0928955c-1.2913208,0.1971893-2.5054321-0.3468933-3.1314697,0.5820923
			c-2.9389648,0.4632874,0.4692383-1.1214294-1.9006958-0.9907532c1.9054565-0.8315582,4.9311523-0.3682709,5.6118774-1.6037292
			c-1.8805542,0.6818848-3.0292969-0.4633026-5.7294922,0.8315582c0.4264526-0.5274353,1.9411011-0.9859924,3.2240601-1.0382538
			c1.0169067-0.8672028-3.9985962-0.3278809-0.1924438-1.5657196l-2.0610352,0.3635101
			c0.5784912-0.3753815,1.0311279-0.6676178,1.9898071-1.2901001c-0.1188354-0.4870605-3.2454834-0.7769165-0.1829834-1.5704651
			c-0.3646851-0.0641632-0.5915527-1.183197-2.5706787-0.1853333c-1.0537109,1.021637,1.8092041,0.3468933-0.9123535,1.5015717
			c2.1608887-1.1095428-0.6367188-0.8838348-1.5609741-1.0549011l1.1618042-0.3872681
			c-0.5429077-0.104538-0.473999-0.7056427-1.8128052-0.4965668c0.7460327-0.009491,1.5229492-0.3231201,1.7462769-0.5868378
			l-1.8995361,0.2565918c-1.2437744-0.6866302,3.1148071-1.0952759,2.2702026-1.8627014l1.6524048,0.306488
			c-0.3540039-0.0688934,1.2390137-0.8458099,0.5274658-1.12854c-1.7438965,0.2447205-3.8370972,0.5369568-5.1925049,0.7270203
			c-0.9171143-0.3136139,1.8068848-0.7483978-0.0950317-0.781662l2.25354,0.1092834
			c0.5820923-0.0498962,2.611084-1.2021942,2.3390503-1.8816986c-0.7258301-0.280365-3.4070435-0.2946167-4.0829468,0.6509857
			c-0.1497192-0.3373718,0.7091675-1.1000366,2.0372925-1.1641846c-0.854126-0.6224823-1.779541,0.5987244-3.0708618,0.2138367
			c1.0275879-0.5820923,2.340271-1.8793335,3.8228149-2.8510742l3.0827637-0.0736542l-0.1259155-0.4775543
			c2.4815674-0.0166321,1.6524048-0.7864227,4.1672974-1.102417c0.2850952-0.4252777-0.6581421-0.5915985-1.3815918-0.731781
			c-3.5745239,2.0005035-5.6463013,0.3991547-9.1186523,1.6441193c-1.4267578-1.0121307,8.4082642-3.171814,2.3640137-2.9817352
			c-0.8588867,0.475174-3.807373,0.5892181-2.4946899,1.1142883c0.1211548-0.9052124-3.7919312,0.4419098-2.6372681-0.9004669
			c1.7225342,0.2922363,3.4022827-1.7438965,5.8886719-1.3233643c-1.2188721,0.2589722-0.71875,0.8078003-0.3267212,0.8695679
			c1.2651978-0.7032623,3.6303711-0.9170837,3.3726196-1.7367706c-0.5048828-0.4062805-0.789978-1.0738983-2.6444092-0.4609222
			c-2.0646362,0.5868378,0.4728394,0.7032623-1.7260742,0.9551086c-1.0596313-0.795929,2.0527954-1.8246918-1.7736206-1.2307129
			c0.4954224,0.5512085-1.5870972,1.2901154-3.0137939,1.6678772l-1.1273804-0.4894409l1.4326782-0.2375793
			c0.583313-1.4350433-2.637207,0.3444977-2.678833-0.8838348l2.565979-1.2782288
			c2.4626465-0.3777771-0.4727783,1.9268494,3.3001099,0.6795044c-0.0878906-0.7792969-2.1359253-0.4894409-1.37323-1.4540558
			c0.3860474,0.0641632,0.5512085,0.2471008,0.947937,0.3065033c0.0344849-0.2969971,5.0844116-1.9601135,1.730835-2.1929474
			c-1.354248-0.2209625-1.4349976,0.235199-2.8926392,0.6177216c-0.8458252-1.0596466-2.4625854-1.0050049-2.9603271-1.7011414
			c2.9294434-0.6272278-0.1877441-1.4160309,3.0458984-1.3803864c-1.5585938,0.8481903-0.7947388,2.5065613,2.0598755,2.1858215
			c3.2276611-1.3495026-0.1651001,1.0572662,3.3167114,0.3848877c-0.2280273-0.9717407,3.1065063-1.8318024,5.2365112-2.5778351
			c0.0748291-0.3088684-0.9182739-0.3159943-1.3079224-0.3801422c-2.0895996,0.4466705-1.9518433,0.7864227-4.0568848,1.3803864
			c0.2233887-1.2140808-1.2449341-1.9268494-3.4556885-1.9601135c0.9099731-0.6343536,3.0244751-1.08815,3.3511963-0.7198944
			c-1.008606-1.1000366-1.1558838-2.5279388-0.8909912-3.9035797c-3.1920166,1.7106323-1.2342529-1.1190491-3.9320679,0.1900635
			c-0.5678711,0.852951-2.8261719,2.069397-4.4928589,2.1383057c0.0831909-0.4609222,1.5111084-0.3967743,2.1893921-0.7650452
			c-2.0598755,0.0047607,2.7572632-1.6156006-0.3896484-1.3043518c1.5039673,0.8458099,4.2872925-0.9218597,7.069458-1.449295
			c-1.7830811-0.4181671,1.937561-0.4870605,1.6904907-1.3138733c-1.7581787-0.425293-3.2739868-1.1190491-4.1589966-1.8817062
			c2.2546997-1.8698273-0.8588867-2.9532394-1.3008423-3.9582367c1.2473755-0.9265976,4.526123-1.4184113,4.9003296-2.1573105
			c-0.267334-0.6747589-3.2728271,1.4445419-2.1217041,0.0213776l0.6605225-0.0712738
			c-0.8375244-0.1069183,1.6191406-2.470932-3.0744019-1.525322l3.5685425-0.6272354
			c0.2578125-0.2756042-0.5891724-0.237587-1.0037842-0.2969894c1.1273804-0.3136139,2.0943604-0.8173065,2.9235229-0.7056351
			c2.2202759-1.2853622-0.7578735-1.2307129-1.0548706-1.8935928l-1.9399414,1.0050049
			c-1.9755249-0.7388992-0.1508789-2.0836563-1.215271-3.026886l2.0634766-0.5226974l-1.4231567-0.3468781
			c2.0349731-0.3730164,3.1504517-1.3447571,1.3768311-1.2520981l5.519165,0.4086533
			c-1.0762329,0.8196869-2.6217651,0.133049-4.5581055,0.9883728c-1.6868896,0.7388992-0.8292236,1.646492,1.1796265,1.2853546
			c0.112854-0.4656754-0.3409424-0.3635101-1.1654053-0.4775543c2.8095093-0.9075851,2.8677368-0.2613449,4.838501-0.4680481
			c-0.1722412-0.1805649,0.6141968-0.7198944-0.2969971-0.5203171c1.4992065,0.04039,1.821167,0.4062729,2.0682373,1.0881577
			c-1.2224121-0.1758194-1.6797485,0.7294006-2.5350952,0.7697906c2.5054321-0.6201096,3.4320068-0.1568146,2.9615479,0.8933334
			c-2.6859131,1.3875198,2.2452393,1.1261749,1.7094727,2.3402557c-2.5754395,0.266098-4.7042847,0.289856-5.8779297-0.0427704
			c-1.079834,0.9646149,0.2589722,0.6771317-0.8197021,1.6417465c1.9328003-0.1972046,4.819519-0.7484131,6.1452637-0.2328415
			l-1.8057251,0.5369492c1.1190796,0.4918137,3.7990723-0.2352066,3.532959,0.8481979
			c-0.4786987,1.860321-0.0498657,3.5258255,0.0404053,4.8230591l-1.7521973,0.5274506
			c3.9522705-0.3397522,1.979126,1.91259,3.8774414,2.3853989c-1.2675171,2.0313873,2.4946899,2.9817352-0.2554321,4.5949707
			c2.024292,2.4210358,3.867981,4.5189514,3.9665527,7.5719757l-2.5267334,0.1710663
			c1.8995361,0.0332489-1.2972412,0.7127686-0.8114014,1.1214142c1.7700806-1.1047821,2.6693115,0.0213776,4.2124634-0.0166321
			c-1.5324097,1.7890472,0.8969116,2.8890839,2.7988281,3.58284l-1.6001587,0.4846954
			c3.2941895,0.330246,0.9681396,2.4329071,0.8446045,3.9986267c-0.6153564,0.3421173-2.0349121,1.0097504-1.7474365,1.3875122
			c2.7346191,0.08078,2.6526489,0.5393372,4.4963379,1.2521057c0.1948242,0.8363037-0.112854,2.3639984-0.8683472,3.4759216
			c4.2064819,2.1929474,2.7476807,6.013382,5.5144043,8.7313995l-1.6643066,0.7080231
			c4.3609619,2.1763153,1.956543,6.9851227,4.387085,9.1970825l-2.8498535,0.5060577
			c-0.6546021,1.0834045,1.1879272,1.7320251,3.0922241,0.9765015c-0.6486206,1.0857849,1.7985229,1.7629089-0.3243408,2.9247131
			c-0.3029175,1.0097656,1.4944458,0.7198944,2.0147705,1.3447571c-0.6403198,2.0313873-0.2518311,2.6111145,0.5999146,4.1221771
			l0.0760498-0.4537964c-0.6201172-0.0213776-1.7522583,0.2756042-1.824707,0.7294006
			c0.8684082,0.411026-0.1889038,2.4495392,2.7952271,0.9764862c-1.4029541,2.2523499,2.3189087,3.7087708,0.3171997,6.0775452
			c0.7958984-0.3753967,1.0454102,0.0142517,1.6393433,0.0427551c0.3516235,1.5395813-0.9384766,3.6161194,0.6925659,4.4714355
			c-0.3480225,0.3563843-1.4468994-0.0142517-1.3946533,0.636734c0.3849487,0.2874908,1.0454102-0.2803497,1.5918579,0.0546417
			c1.9945679,2.0979156-0.432373,5.4883118,0.4609375,7.6527557c2.3414307,3.6374969,2.4911499,8.0661621,3.5650024,11.8770905
			l-0.5262451,0.0997925c2.227417,0.7555237-1.3245239,3.5970917,1.8092651,3.8227997
			c-0.4157715,0.4395447,0.0213623,1.2354736-0.9884033,1.2758636c1.5562134,0.6604919-0.6117554,3.2383423,1.3863525,4.2647247
			c0.0178223-0.1496887-0.0985718-0.2019501-0.3433228-0.3017426c-0.7282104,1.803299,1.0073853,2.7299042,0.4110107,4.5854797
			c-0.2375488-0.104538-0.451416-0.3563843-0.9324951-0.2708588c-0.7507935,0.8600769,2.2998657,0.9028473,0.1306763,1.8674469
			c0.1021729,0.3445129,1.1784058-0.0641479,1.0655518-0.2613373c-0.0772095,3.7206421,2.163269,7.0397644,3.3856812,10.5465851
			c-0.6546021,2.9413452-3.3916016,1.1190491-1.4160767,2.7417755c-0.3492432,0.2756042,0.7971191-0.0950317,0.3884888,0.0498962
			c0.7317505,0.636734-1.9446411,1.8555756-0.7686157,2.1121674c1.1630249-0.5678406,0.7650757,0.1734467,1.5039673-0.0166321
			c-0.4312134,1.8080597-1.414856,2.4210358-0.2209473,3.4189148l-0.6427002,0.08078
			c2.0883789,0.9741058,1.557373,2.9294739,3.7788696,3.62323c2.1085815,8.0139008,4.6519775,15.5478363,6.3662109,23.459549
			c1.3103027,7.9283752,3.3582764,15.4742126,4.3407593,23.625885c-0.4954224,2.1169128-0.4086914,2.2404785,0.3540039,4.1910706
			c-0.1497192-0.0427551-0.2078857-0.1639404-0.3029785,0.0095215c0.6914062-0.0879211,0.3706665,1.4207764,1.0394897,1.4374084
			c0.4811401,2.9817505,1.2057495,5.6474915,1.8163452,8.6815186c-0.1544189-0.4633179-0.6628418-0.5726013-0.5048828-0.0166321
			l0.473999,0.4965515l-0.1306763,0.1401672c0.1615601,0.3659058,0.5108643,0.7151489,0.6035156,0.2637329
			c1.8615112,7.5292053,2.479248,15.2817383,4.19104,22.6897888c0.2589722,1.8009033,0.8921509,4.2884827,1.3222046,6.2034302
			c0.8838501,5.7876892,2.0979004,10.8839722,3.4141235,16.6431274
			C882.1119995,362.1961365,881.5263672,359.9818115,881.2911377,359.0956116z"/>
		<path class="st672" d="M817.1503906,109.1921082c-1.4813843,0.6153564-2.1359253,1.4920578-4.3217773,1.525322
			C814.2458496,110.2660141,815.7640381,109.4938431,817.1503906,109.1921082z"/>
		<path class="st672" d="M806.9851074,130.6345367c0.428833-0.0926666-0.4977417,0.4015198-0.718689,0.5203247
			c-0.1722412-0.1829529-1.440979-0.054657-0.7519531-0.425293
			C805.6950073,130.9148865,806.3531494,130.7010651,806.9851074,130.6345367z"/>
		<path class="st672" d="M807.5755005,135.2532654c-1.2675171,0.2732391-2.5671387-0.3943939-2.9068604-0.9075775
			L807.5755005,135.2532654z"/>
		<path class="st672" d="M803.8869629,140.7154541c-0.9064331,0.6319885-1.5039673,0.6866302-1.644104,0.2066956
			C802.8795776,140.7106934,803.2633057,140.7772217,803.8869629,140.7154541z"/>
		<path class="st672" d="M806.7641602,140.2473907c0.1425781,0.3302612-0.5179443,0.6937714-1.1535034,1.0477753
			C806.6477661,140.9981842,804.6828613,140.6916962,806.7641602,140.2473907z"/>
		<path class="st672" d="M806.3673706,150.0289459c0.1687012,0.1876984,1.3008423,0.3801422,0.0760498,0.9313507
			C807.2714233,150.4922485,804.59021,150.335434,806.3673706,150.0289459z"/>
		<path class="st672" d="M809.5653076,153.6521759c-0.0285034,0.1520691-0.2221069,0.2661133,0.1532593,0.3302612
			c-0.4383545,0.3872681-1.3673096,0.3611298-1.5502319,0.185318L809.5653076,153.6521759z"/>
		<polygon class="st672" points="838.5072632,227.5471954 838.0023804,227.2026825 838.7520142,227.0648804 		"/>
		<path class="st672" d="M849.1987915,260.4627991c0.4942017,0.3468933-0.4181519,0.4561768-0.4751587,0.5535889
			C848.534729,260.6291199,849.4542236,260.9736328,849.1987915,260.4627991z"/>
		<polygon class="st672" points="857.2316895,277.566864 857.1793823,277.4361877 858.1309814,277.2175903 		"/>
	</g>
	<g>
		<path class="st126" d="M850.4725952,292.001709h18.0476685c14.4986572,0,22.9267578,5.9003296,27.364624,10.7920532
			c5.9192505,6.5054932,8.882019,15.2298889,8.882019,25.4419861s-2.9627686,19.0877991-8.882019,25.4419861
			c-4.4378662,5.0430298-12.8659668,10.9685669-27.364624,10.9685669h-15.3875122v37.1165466H835.973938V292.001709H850.4725952z
			 M889.3793945,328.2357483c0-4.2865601-0.8887939-10.4894714-4.885437-14.9273071
			c-3.5490112-3.8579102-8.8756714-5.9255371-15.9736938-5.9255371h-15.3875122v41.7309265h15.3875122
			c7.0980225,0,12.4246826-1.9415588,15.9736938-5.7742615
			C888.4906006,338.9017334,889.3793945,332.6736145,889.3793945,328.2357483z"/>
		<path class="st126" d="M1007.493042,401.7628479h-19.3840942l-27.6608887-37.1165466h-12.5760498v37.1165466h-17.1588135
			V292.001709h14.4923706h18.0539551c14.4986572,0,22.9268188,5.9003296,27.364624,10.9433289
			c5.774292,6.3542175,8.882019,15.2298889,8.882019,25.4420166c0,10.060791-3.1077271,18.9364929-8.882019,25.2906799
			c-2.6601562,2.9753723-6.8017578,6.379425-12.7209473,8.447052L1007.493042,401.7628479z M963.2595215,349.2398987
			c7.0980225,0,12.4247437-2.067627,15.8287354-5.9003296c4.1416016-4.4378357,4.8791504-10.6659546,4.8791504-14.9525146
			c0-4.4378662-0.7375488-10.6407776-4.8791504-15.0786133c-3.4039917-3.8579102-8.7307129-5.7742615-15.8287354-5.7742615
			h-15.3875122v41.705719H963.2595215z"/>
		<path class="st126" d="M1060.3753662,397.4762878c-6.6568604-2.7988586-12.4310303-6.8080444-17.4614258-11.8258362
			c-5.0303955-5.0430298-9.020752-10.8172607-11.8322754-17.4740601
			c-2.8114014-6.6567688-4.2928467-13.8934937-4.2928467-21.2814941c0-7.4132385,1.4814453-14.6499634,4.2928467-21.4580078
			c2.8115234-6.5054932,6.8018799-12.2797546,11.8322754-17.4740601
			c5.0303955-5.0177917,10.8045654-8.8757019,17.4614258-11.6745605c6.6567383-2.8240967,13.9060059-4.2865601,21.300415-4.2865601
			c7.4006348,0,14.6499023,1.4624634,21.4516602,4.2865601c6.5118408,2.7988586,12.2797852,6.6567688,17.4614258,11.6745605
			c5.0240479,5.1943054,8.8757324,10.9685669,11.6871338,17.4740601c2.8051758,6.8080444,4.2866211,14.0447693,4.2866211,21.4580078
			c0,7.3880005-1.4814453,14.6247253-4.2866211,21.2814941c-2.8114014,6.6567993-6.6630859,12.4310303-11.6871338,17.4740601
			c-5.1816406,5.0177917-10.949585,9.0269775-17.4614258,11.8258362
			c-6.8017578,2.8240967-14.0510254,4.2865601-21.4516602,4.2865601
			C1074.2813721,401.7628479,1067.0321045,400.3003845,1060.3753662,397.4762878z M1055.048584,320.2425842
			c-7.104248,7.1106262-11.0946045,16.5914917-11.0946045,26.6523132c0,10.0355835,3.9903564,19.516449,11.0946045,26.6271057
			c7.0981445,7.0854187,16.5664062,11.0946045,26.6271973,11.0946045s19.5290527-4.0091858,26.6333008-11.0946045
			c7.0981445-7.1106567,11.0947266-16.5915222,11.0947266-26.6271057c0-10.0608215-3.996582-19.541687-11.0947266-26.6523132
			c-7.104248-7.0854492-16.5725098-11.094635-26.6333008-11.094635S1062.1467285,313.157135,1055.048584,320.2425842z"/>
		<path class="st126" d="M1202.7248535,364.4949951c0,14.9273376-6.8081055,23.6517334-12.4310303,28.3921814
			c-6.8017578,5.774231-16.2700195,8.8756714-26.6270752,8.8756714c-2.3702393,0-4.7341309-0.1512756-6.953125-0.4286499
			v-17.6253052c2.2189941,0.6051636,4.5828857,0.9077148,6.953125,0.9077148c6.3604736,0,11.8321533-1.7902527,15.6773682-4.8916931
			c3.996582-3.4040527,6.0705566-8.5731201,6.0705566-15.2299194V292.001709h17.3101807V364.4949951z"/>
		<path class="st126" d="M1258.7485352,336.6828003h40.0919189v15.5324707h-40.0919189v34.0151062h48.6712646v15.5324707
			h-48.8226318h-17.0075684V292.001709h17.0075684h48.8226318v15.3811951h-48.6712646V336.6828003z"/>
		<path class="st126" d="M1414.880127,392.7358704c-2.8115234,1.7902832-5.7679443,3.4040222-8.8757324,4.7404175
			c-6.8079834,2.8240967-14.057373,4.2865601-21.4516602,4.2865601c-7.4006348,0-14.6436768-1.4624634-21.3067627-4.2865601
			c-6.6567383-2.7988586-12.4246826-6.8080444-17.4550781-11.8258362
			c-5.0303955-5.0430298-9.020752-10.8172607-11.8321533-17.4740601
			c-2.8115234-6.6567688-4.2929688-13.8934937-4.2929688-21.2814941c0-7.4132385,1.4814453-14.6499634,4.2929688-21.4580078
			c2.8114014-6.5054932,6.8017578-12.4310303,11.8321533-17.4740601c5.0303955-5.0177917,10.7983398-9.00177,17.4550781-11.6745605
			c6.6630859-2.9501648,13.9061279-4.2865601,21.3067627-4.2865601c7.3942871,0,14.6436768,1.3363953,21.4516602,4.2865601
			c0.7375488,0.3025818,1.6263428,0.7312317,2.3638916,1.0338135v20.2729187
			c-6.6567383-5.4716797-14.9398193-8.447052-23.8155518-8.447052c-10.060791,0-19.5290527,3.8579102-26.6270752,11.094635
			c-7.1043701,7.1106262-11.1009521,16.5914917-11.1009521,26.6523132c0,10.0355835,3.996582,19.516449,11.1009521,26.6271057
			c7.0980225,7.0854187,16.5662842,11.0946045,26.6270752,11.0946045s19.5290527-4.0091858,26.6270752-11.0946045
			c1.3364258-1.3363953,2.5152588-2.6727905,3.7003174-4.1604919V392.7358704z"/>
		<path class="st126" d="M1514.5174561,307.3829041h-30.1761475v94.3799438h-17.3101807v-94.3799438h-30.182373V292.001709
			h77.6687012V307.3829041z"/>
	</g>
</g>
</svg>
